<svg id="Layer_1" data-name="Layer 1" xmlns="http://www.w3.org/2000/svg" viewBox="0 0 326 698"><defs><style>.cls-1{font-size:92px;}.cls-1,.cls-2{font-family:Sabon-Bold, Sabon;font-weight:700;}.cls-2{font-size:90px;}</style></defs><text class="cls-1" transform="translate(-279.07 -33.95) rotate(161.92)">‘</text><text class="cls-1" transform="matrix(-0.91, 0.41, -0.41, -0.91, -307.34, -24.56)">.</text><text class="cls-1" transform="translate(-335.93 -11.48) rotate(147.77)">.</text><text class="cls-1" transform="translate(-364.7 7.55) rotate(135.4)">.</text><text class="cls-1" transform="matrix(-0.42, 0.91, -0.91, -0.42, -391.98, 37.71)">.</text><text class="cls-1" transform="translate(-406.34 84.39) rotate(82.22)">.</text><text class="cls-1" transform="matrix(0.6, 0.8, -0.8, 0.6, -394.3, 129.53)">.</text><text class="cls-1" transform="matrix(0.86, 0.52, -0.52, 0.86, -366.94, 160.33)">.</text><text class="cls-1" transform="translate(-337.52 176.1) rotate(20)">.</text><text class="cls-1" transform="translate(-313.58 184.81) rotate(19.56)">.</text><text class="cls-1" transform="translate(-289.5 193.35) rotate(19.38)">.</text><text class="cls-1" transform="matrix(0.94, 0.33, -0.33, 0.94, -265.42, 201.81)">.</text><text class="cls-1" transform="translate(-241.41 210.29) rotate(19.92)">.</text><text class="cls-1" transform="matrix(0.93, 0.36, -0.36, 0.93, -217.58, 218.9)">.</text><text class="cls-1" transform="translate(-194.07 227.79) rotate(22.36)">.</text><text class="cls-1" transform="translate(-171.04 237.19) rotate(25.04)">.</text><text class="cls-1" transform="translate(-149.03 247.23) rotate(30.04)">.</text><text class="cls-1" transform="translate(-128.88 258.09) rotate(40.24)">.</text><text class="cls-1" transform="matrix(0.45, 0.89, -0.89, 0.45, -112.16, 269.32)">.</text><text class="cls-1" transform="matrix(-0.12, 0.99, -0.99, -0.12, -101.75, 283.66)">.</text><text class="cls-1" transform="translate(-102.9 302.28) rotate(124.04)">.</text><text class="cls-1" transform="matrix(-0.83, 0.56, -0.56, -0.83, -113.4, 319.3)">.</text><text class="cls-1" transform="matrix(-0.94, 0.33, -0.33, -0.94, -131.21, 331.46)">.</text><text class="cls-1" transform="matrix(-0.97, 0.23, -0.23, -0.97, -153.84, 339.13)">.</text><text class="cls-1" transform="matrix(-0.98, 0.22, -0.22, -0.98, -178.53, 344.7)">.</text><text class="cls-1" transform="translate(-205.89 350.72) rotate(164.02)">.</text><text class="cls-1" transform="matrix(-0.92, 0.39, -0.39, -0.92, -235.31, 359.34)">.</text><text class="cls-1" transform="translate(-265.31 372.76) rotate(146.66)">.</text><text class="cls-1" transform="translate(-293.01 391.95) rotate(135.33)">.</text><text class="cls-1" transform="translate(-315.8 415.48) rotate(125.29)">.</text><text class="cls-1" transform="translate(-333.45 441.22) rotate(117.38)">.</text><text class="cls-1" transform="translate(-347.14 468.19) rotate(110.81)">.</text><text class="cls-1" transform="translate(-357.41 495.97) rotate(105.09)">.</text><text class="cls-1" transform="translate(-364.73 523.68) rotate(100.7)">.</text><text class="cls-1" transform="translate(-369.85 551.36) rotate(97.03)">.</text><text class="cls-1" transform="matrix(-0.07, 1, -1, -0.07, -373.19, 579.07)">.</text><text class="cls-1" transform="translate(-374.94 606.82) rotate(90.55)">.</text><text class="cls-1" transform="translate(-375.16 634.74) rotate(87.2)">.</text><text class="cls-1" transform="matrix(0.12, 0.99, -0.99, 0.12, -373.71, 663.1)">.</text><text class="cls-1" transform="translate(-370.13 692.48) rotate(77.54)">’</text><text class="cls-2" transform="matrix(0.56, -0.83, 0.83, 0.56, 58.99, 706.02)">‘</text><text class="cls-2" transform="translate(74.8 682.5) rotate(-60.72)">.</text><text class="cls-2" transform="translate(88.73 657.36) rotate(-66.1)">.</text><text class="cls-2" transform="translate(100.33 630.72) rotate(-71.95)">.</text><text class="cls-2" transform="translate(109.22 602.73) rotate(-78.22)">.</text><text class="cls-2" transform="translate(115.04 573.54) rotate(-84.84)">.</text><text class="cls-2" transform="translate(117.43 544.1) rotate(-91.59)">.</text><text class="cls-2" transform="translate(116.33 514.52) rotate(-98.23)">.</text><text class="cls-2" transform="translate(111.91 485.7) rotate(-104.21)">.</text><text class="cls-2" transform="translate(104.76 458.22) rotate(-109.14)">.</text><text class="cls-2" transform="translate(95.61 432.27) rotate(-112.79)">.</text><text class="cls-2" transform="translate(85.25 407.83) rotate(-115.01)">.</text><text class="cls-2" transform="translate(74.5 384.93) rotate(-115.61)">.</text><text class="cls-2" transform="translate(63.77 362.76) rotate(-114.19)">.</text><text class="cls-2" transform="translate(53.84 341.09) rotate(-109.81)">.</text><text class="cls-2" transform="translate(45.79 319.87) rotate(-100.86)">.</text><text class="cls-2" transform="translate(41.09 299.16) rotate(-85.91)">.</text><text class="cls-2" transform="matrix(0.39, -0.92, 0.92, 0.39, 41.68, 278.89)">.</text><text class="cls-2" transform="translate(48.89 259.95) rotate(-48.04)">.</text><text class="cls-2" transform="translate(62.19 244.3) rotate(-30.21)">.</text><text class="cls-2" transform="translate(80.88 233.25) rotate(-17.6)">.</text><text class="cls-2" transform="translate(102.94 226.32) rotate(-10.54)">.</text><text class="cls-2" transform="translate(126.8 221.99) rotate(-7.64)">.</text><text class="cls-2" transform="translate(151.75 218.75) rotate(-7.9)">.</text><text class="cls-2" transform="matrix(0.98, -0.2, 0.2, 0.98, 178.86, 215.05)">.</text><text class="cls-2" transform="translate(208.63 208.92) rotate(-19.02)">.</text><text class="cls-2" transform="translate(241.3 196.64) rotate(-33.12)">.</text><text class="cls-2" transform="translate(272.2 174.05) rotate(-52.6)">.</text><text class="cls-2" transform="translate(293.25 143.9) rotate(-68.68)">.</text><text class="cls-2" transform="translate(304.42 112.11) rotate(-81.07)">.</text><text class="cls-2" transform="translate(308.64 81.45) rotate(-89.61)">.</text><text class="cls-2" transform="matrix(-0.1, -0.99, 0.99, -0.1, 308.53, 52.21)">.</text><text class="cls-2" transform="translate(305.56 24.23) rotate(-100.26)">’</text></svg>