<svg xmlns="http://www.w3.org/2000/svg" viewBox="0 0 817.69 817.69"><defs><style>.cls-1{font-size:58px;font-family:Sabon-BoldItalic, Sabon;font-weight:700;font-style:italic;}</style></defs><g id="Layer_2" data-name="Layer 2"><g id="Layer_1-2" data-name="Layer 1"><text class="cls-1" transform="translate(306.41 64.52) rotate(-14.9)">I</text><text class="cls-1" transform="matrix(0.98, -0.21, 0.21, 0.98, 325.67, 59.43)"> </text><text class="cls-1" transform="translate(340.76 55.92) rotate(-8.28)">h</text><text class="cls-1" transform="translate(371.83 51.39) rotate(-3.37)">a</text><text class="cls-1" transform="translate(402.13 49.62) rotate(1.22)">v</text><text class="cls-1" transform="translate(430.39 50.25) rotate(5.43)">e</text><text class="cls-1" transform="translate(455.48 52.75) rotate(8.68)"> </text><text class="cls-1" transform="matrix(0.98, 0.2, -0.2, 0.98, 470.9, 55)">r</text><text class="cls-1" transform="translate(492.38 59.37) rotate(15.47)">e</text><text class="cls-1" transform="matrix(0.95, 0.33, -0.33, 0.95, 516.58, 66.15)">f</text><text class="cls-1" transform="matrix(0.92, 0.39, -0.39, 0.92, 534.28, 71.95)">u</text><text class="cls-1" transform="translate(564.14 84.88) rotate(27.46)">s</text><text class="cls-1" transform="translate(583.64 94.93) rotate(31.22)">e</text><text class="cls-1" transform="translate(605.08 107.71) rotate(35.79)">d</text><text class="cls-1" transform="matrix(0.77, 0.64, -0.64, 0.77, 631.38, 127)"> </text><text class="cls-1" transform="translate(643.48 136.95) rotate(42.35)">t</text><text class="cls-1" transform="matrix(0.69, 0.72, -0.72, 0.69, 657.42, 149.32)">h</text><text class="cls-1" transform="matrix(0.63, 0.78, -0.78, 0.63, 679.07, 172.15)">e</text><text class="cls-1" transform="matrix(0.55, 0.83, -0.83, 0.55, 695.24, 191)">m</text><text class="cls-1" transform="translate(720.83 230.93) rotate(61.54)"> </text><text class="cls-1" transform="translate(728.36 244.61) rotate(64.56)">s</text><text class="cls-1" transform="translate(737.91 264.25) rotate(68.75)">o</text><text class="cls-1" transform="translate(748.76 292.75) rotate(72.45)"> </text><text class="cls-1" transform="matrix(0.24, 0.97, -0.97, 0.24, 753.69, 307.47)">o</text><text class="cls-1" transform="translate(760.8 337.08) rotate(80.08)">f</text><text class="cls-1" transform="translate(764.31 357.32) rotate(83.37)">t</text><text class="cls-1" transform="translate(766.58 375.9) rotate(86.84)">e</text><text class="cls-1" transform="translate(768.14 400.83) rotate(91.35)">n</text><text class="cls-1" transform="translate(767.1 433.45) rotate(95.15)"> </text><text class="cls-1" transform="translate(765.97 448.93) rotate(98.82)">a</text><text class="cls-1" transform="translate(761.42 478.86) rotate(103.84)">n</text><text class="cls-1" transform="matrix(-0.33, 0.95, -0.95, -0.33, 753.7, 510.33)">d</text><text class="cls-1" transform="matrix(-0.39, 0.92, -0.92, -0.39, 742.8, 541.08)"> </text><text class="cls-1" transform="translate(736.73 555.51) rotate(115.51)">l</text><text class="cls-1" transform="translate(729.7 570.56) rotate(118.85)">e</text><text class="cls-1" transform="matrix(-0.54, 0.84, -0.84, -0.54, 717.5, 592.54)">f</text><text class="cls-1" transform="matrix(-0.58, 0.81, -0.81, -0.58, 706.47, 609.88)">t</text><text class="cls-1" transform="translate(695.49 625.17) rotate(128.37)"> </text><text class="cls-1" transform="matrix(-0.66, 0.75, -0.75, -0.66, 685.81, 637.47)">t</text><text class="cls-1" transform="translate(673.73 651.69) rotate(135.09)">h</text><text class="cls-1" transform="translate(651.39 673.83) rotate(139.56)">e</text><text class="cls-1" transform="translate(632.13 690.08) rotate(142.8)"> </text><text class="cls-1" transform="matrix(-0.83, 0.55, -0.55, -0.83, 619.93, 699.67)">o</text><text class="cls-1" transform="translate(594.74 716.48) rotate(151.46)">u</text><text class="cls-1" transform="matrix(-0.91, 0.41, -0.41, -0.91, 566, 731.85)">t</text><text class="cls-1" transform="translate(548.86 739.61) rotate(158.33)"> </text><text class="cls-1" transform="translate(534.38 745.47) rotate(161.35)">s</text><text class="cls-1" transform="translate(513.74 752.63) rotate(165.55)">o</text><text class="cls-1" transform="translate(484.16 760.02) rotate(169.25)"> </text><text class="cls-1" transform="translate(469.27 763.6) rotate(174.25)">m</text><text class="cls-1" transform="translate(422.26 768.1) rotate(-179.07)">u</text><text class="cls-1" transform="translate(389.71 767.57) rotate(-174.96)">c</text><text class="cls-1" transform="matrix(-0.99, -0.17, 0.17, -0.99, 364.79, 765.53)">h</text><text class="cls-1" transform="matrix(-0.97, -0.23, 0.23, -0.97, 333.68, 760.05)"> </text><text class="cls-1" transform="translate(318.56 756.75) rotate(-162.99)">a</text><text class="cls-1" transform="translate(289.55 747.96) rotate(-157.95)">n</text><text class="cls-1" transform="translate(259.51 735.83) rotate(-152.75)">d</text><text class="cls-1" transform="matrix(-0.86, -0.52, 0.52, -0.86, 230.64, 720.66)"> </text><text class="cls-1" transform="matrix(-0.82, -0.57, 0.57, -0.82, 217.24, 712.94)">d</text><text class="cls-1" transform="matrix(-0.78, -0.63, 0.63, -0.78, 190.62, 694.07)">i</text><text class="cls-1" transform="matrix(-0.73, -0.68, 0.68, -0.73, 176.76, 683.25)">d</text><text class="cls-1" transform="translate(153.05 660.86) rotate(-133.3)"> </text><text class="cls-1" transform="translate(142.06 650.12) rotate(-128.57)">w</text><text class="cls-1" transform="translate(114.88 615.17) rotate(-123.66)">i</text><text class="cls-1" transform="matrix(-0.51, -0.86, 0.86, -0.51, 105.01, 600.4)">t</text><text class="cls-1" transform="translate(95.28 584.53) rotate(-116.74)">h</text><text class="cls-1" transform="matrix(-0.37, -0.93, 0.93, -0.37, 81.13, 556.46)">o</text><text class="cls-1" transform="translate(69.81 528.37) rotate(-106.74)">u</text><text class="cls-1" transform="translate(60.65 497.13) rotate(-102.63)">t</text><text class="cls-1" transform="translate(56.55 478.74) rotate(-99.87)"> </text><text class="cls-1" transform="matrix(-0.12, -0.99, 0.99, -0.12, 53.82, 463.34)">t</text><text class="cls-1" transform="translate(51.27 444.87) rotate(-93.13)">h</text><text class="cls-1" transform="translate(49.65 413.42) rotate(-88.7)">e</text><text class="cls-1" transform="matrix(0.12, -0.99, 0.99, 0.12, 49.59, 388.61)">m</text><text class="cls-1" transform="translate(56.04 341.61) rotate(-77.98)"> </text><text class="cls-1" transform="translate(59.19 326.33) rotate(-74.96)">s</text><text class="cls-1" transform="translate(64.68 305.18) rotate(-70.76)">o</text><text class="cls-1" transform="translate(74.94 276.46) rotate(-67.06)"> </text><text class="cls-1" transform="matrix(0.44, -0.9, 0.9, 0.44, 80.87, 262.06)">c</text><text class="cls-1" transform="matrix(0.51, -0.86, 0.86, 0.51, 91.79, 239.57)">o</text><text class="cls-1" transform="matrix(0.58, -0.81, 0.81, 0.58, 107.16, 213.45)">n</text><text class="cls-1" transform="translate(126.32 187.11) rotate(-50.3)">t</text><text class="cls-1" transform="translate(138.33 172.64) rotate(-47.4)">i</text><text class="cls-1" transform="matrix(0.73, -0.69, 0.69, 0.73, 150.04, 159.49)">n</text><text class="cls-1" transform="translate(173.55 137.18) rotate(-38.28)">u</text><text class="cls-1" transform="matrix(0.84, -0.55, 0.55, 0.84, 199.01, 117.1)">a</text><text class="cls-1" transform="translate(224.62 100.53) rotate(-29.54)">l</text><text class="cls-1" transform="matrix(0.89, -0.45, 0.45, 0.89, 239.14, 92.29)">l</text><text class="cls-1" transform="translate(253.79 84.61) rotate(-23.18)">y</text><text class="cls-1" transform="translate(280.98 73.19) rotate(-19.57)"> </text></g></g></svg>