<svg xmlns="http://www.w3.org/2000/svg" viewBox="0 0 810.81 810.81"><defs><style>.cls-1{font-size:54px;font-family:Sabon-BoldItalic, Sabon;font-weight:700;font-style:italic;}</style></defs><g id="Layer_2" data-name="Layer 2"><g id="Layer_1-2" data-name="Layer 1"><text class="cls-1" transform="translate(302.81 60.9) rotate(-13.99)">P</text><text class="cls-1" transform="translate(333.22 53.46) rotate(-9.61)">e</text><text class="cls-1" transform="translate(356.31 49.58) rotate(-6.11)">r</text><text class="cls-1" transform="matrix(1, -0.06, 0.06, 1, 376.75, 47.43)">i</text><text class="cls-1" transform="translate(393.08 46.18) rotate(0.93)">o</text><text class="cls-1" transform="translate(421.42 46.42) rotate(4.96)">d</text><text class="cls-1" transform="matrix(0.99, 0.16, -0.16, 0.99, 451.65, 49.2)">s</text><text class="cls-1" transform="matrix(0.98, 0.2, -0.2, 0.98, 471.95, 52.48)"> </text><text class="cls-1" transform="translate(486.17 55.2) rotate(15.35)">h</text><text class="cls-1" transform="translate(514.41 62.94) rotate(19.97)">a</text><text class="cls-1" transform="translate(541 72.62) rotate(24.36)">v</text><text class="cls-1" transform="translate(565.02 83.53) rotate(28.34)">e</text><text class="cls-1" transform="translate(585.64 94.77) rotate(31.38)"> </text><text class="cls-1" transform="translate(598.12 102.11) rotate(34.8)">a</text><text class="cls-1" transform="translate(621.39 118.52) rotate(38.21)"> </text><text class="cls-1" transform="matrix(0.76, 0.65, -0.65, 0.76, 632.87, 127.54)">l</text><text class="cls-1" transform="matrix(0.73, 0.68, -0.68, 0.73, 644.71, 137.66)">i</text><text class="cls-1" transform="matrix(0.7, 0.72, -0.72, 0.7, 656.82, 148.98)">f</text><text class="cls-1" transform="translate(669.06 161.46) rotate(49.11)">e</text><text class="cls-1" transform="matrix(0.61, 0.79, -0.79, 0.61, 684.37, 179.3)"> </text><text class="cls-1" transform="matrix(0.57, 0.82, -0.82, 0.57, 693.43, 190.58)">o</text><text class="cls-1" transform="translate(709.38 214.11) rotate(59.2)">f</text><text class="cls-1" transform="translate(718.35 229.19) rotate(61.76)"> </text><text class="cls-1" transform="translate(725.3 242.06) rotate(64.34)">t</text><text class="cls-1" transform="translate(733.03 257.65) rotate(68.1)">h</text><text class="cls-1" transform="translate(743.89 284.89) rotate(72.33)">e</text><text class="cls-1" transform="matrix(0.25, 0.97, -0.97, 0.25, 750.93, 307.28)">i</text><text class="cls-1" transform="translate(755.13 323.28) rotate(78.52)">r</text><text class="cls-1" transform="translate(759.15 343.43) rotate(81.33)"> </text><text class="cls-1" transform="translate(761.56 357.71) rotate(84.75)">o</text><text class="cls-1" transform="translate(764.74 385.6) rotate(90.93)">w</text><text class="cls-1" transform="translate(764.11 426.87) rotate(95.83)">n</text><text class="cls-1" transform="translate(760.79 457.09) rotate(99.4)"> </text><text class="cls-1" transform="translate(758.65 471.41) rotate(102.84)">a</text><text class="cls-1" transform="translate(752.13 499.11) rotate(106.29)"> </text><text class="cls-1" transform="translate(748.34 513.04) rotate(109.9)">n</text><text class="cls-1" transform="translate(737.93 541.5) rotate(114.2)">e</text><text class="cls-1" transform="translate(728.35 562.86) rotate(117.95)">c</text><text class="cls-1" transform="translate(717.41 583.51) rotate(121.69)">e</text><text class="cls-1" transform="matrix(-0.58, 0.82, -0.82, -0.58, 705.08, 603.43)">s</text><text class="cls-1" transform="translate(693.3 620.17) rotate(128.44)">s</text><text class="cls-1" transform="matrix(-0.66, 0.75, -0.75, -0.66, 680.49, 636.25)">i</text><text class="cls-1" transform="matrix(-0.7, 0.72, -0.72, -0.7, 669.54, 648.7)">t</text><text class="cls-1" transform="matrix(-0.74, 0.67, -0.67, -0.74, 657.55, 661.33)">y</text><text class="cls-1" transform="translate(637.12 679.73) rotate(140.98)"> </text><text class="cls-1" transform="translate(626.01 689.01) rotate(144.39)">o</text><text class="cls-1" transform="matrix(-0.85, 0.53, -0.53, -0.85, 602.81, 705.44)">f</text><text class="cls-1" transform="translate(587.9 714.72) rotate(150.6)"> </text><text class="cls-1" transform="matrix(-0.89, 0.45, -0.45, -0.89, 575.2, 721.92)">t</text><text class="cls-1" transform="matrix(-0.92, 0.39, -0.39, -0.92, 559.77, 729.96)">h</text><text class="cls-1" transform="translate(532.74 741.38) rotate(161.16)">e</text><text class="cls-1" transform="translate(510.51 748.88) rotate(164.37)">i</text><text class="cls-1" transform="translate(494.59 753.4) rotate(167.35)">r</text><text class="cls-1" transform="matrix(-0.99, 0.17, -0.17, -0.99, 474.52, 757.84)"> </text><text class="cls-1" transform="translate(460.29 760.53) rotate(173.6)">o</text><text class="cls-1" transform="translate(432.35 764.02) rotate(179.07)">w</text><text class="cls-1" transform="translate(391.24 764.46) rotate(-175.33)">n</text><text class="cls-1" transform="translate(360.91 761.75) rotate(-171.76)"> </text><text class="cls-1" transform="translate(346.57 759.91) rotate(-168.32)">a</text><text class="cls-1" transform="translate(318.74 753.96) rotate(-164.87)"> </text><text class="cls-1" transform="translate(304.65 750.19) rotate(-162.29)">f</text><text class="cls-1" transform="translate(287.99 744.98) rotate(-159)">e</text><text class="cls-1" transform="translate(266.15 736.62) rotate(-155.25)">e</text><text class="cls-1" transform="translate(244.88 726.7) rotate(-152.13)">l</text><text class="cls-1" transform="translate(231.08 719.43) rotate(-149.55)">i</text><text class="cls-1" transform="translate(216.81 711.33) rotate(-145.82)">n</text><text class="cls-1" transform="matrix(-0.78, -0.62, 0.62, -0.78, 191.77, 694.26)">g</text><text class="cls-1" transform="matrix(-0.74, -0.67, 0.67, -0.74, 171.2, 677.6)"> </text><text class="cls-1" transform="matrix(-0.7, -0.71, 0.71, -0.7, 160.27, 668.09)">o</text><text class="cls-1" transform="translate(140.41 647.78) rotate(-131.04)">f</text><text class="cls-1" transform="translate(128.9 634.51) rotate(-128.48)"> </text><text class="cls-1" transform="translate(119.78 623.11) rotate(-125.93)">t</text><text class="cls-1" transform="matrix(-0.53, -0.85, 0.85, -0.53, 109.38, 609.12)">h</text><text class="cls-1" transform="translate(93.82 584.24) rotate(-117.99)">e</text><text class="cls-1" transform="matrix(-0.42, -0.91, 0.91, -0.42, 82.88, 563.49)">i</text><text class="cls-1" transform="translate(75.89 548.51) rotate(-111.82)">r</text><text class="cls-1" transform="matrix(-0.33, -0.95, 0.95, -0.33, 68.31, 529.4)"> </text><text class="cls-1" transform="translate(63.38 515.79) rotate(-105.54)">o</text><text class="cls-1" transform="matrix(-0.17, -0.98, 0.98, -0.17, 55.5, 488.76)">w</text><text class="cls-1" transform="translate(48.6 448.23) rotate(-94.31)">n</text><text class="cls-1" transform="matrix(-0.02, -1, 1, -0.02, 46.56, 417.84)"> </text><text class="cls-1" transform="translate(46.12 403.39) rotate(-87.41)">a</text><text class="cls-1" transform="translate(47.6 374.96) rotate(-84.01)"> </text><text class="cls-1" transform="translate(49.08 360.44) rotate(-81.44)">t</text><text class="cls-1" transform="translate(51.69 343.11) rotate(-78.72)">i</text><text class="cls-1" transform="translate(54.26 327) rotate(-73.86)">m</text><text class="cls-1" transform="matrix(0.37, -0.93, 0.93, 0.37, 66.96, 284.76)">e</text><text class="cls-1" transform="translate(75.68 262.97) rotate(-65.4)"> </text><text class="cls-1" transform="translate(81.5 249.71) rotate(-61.97)">o</text><text class="cls-1" transform="translate(95 224.71) rotate(-58.31)">f</text><text class="cls-1" transform="matrix(0.56, -0.83, 0.83, 0.56, 104.26, 209.76)"> </text><text class="cls-1" transform="translate(112.44 197.67) rotate(-53.18)">t</text><text class="cls-1" transform="translate(122.7 183.61) rotate(-49.46)">h</text><text class="cls-1" transform="translate(141.85 161.35) rotate(-45.29)">e</text><text class="cls-1" transform="translate(158.41 144.74) rotate(-42.12)">i</text><text class="cls-1" transform="matrix(0.78, -0.63, 0.63, 0.78, 170.65, 133.59)">r</text><text class="cls-1" transform="matrix(0.81, -0.59, 0.59, 0.81, 186.62, 120.65)"> </text><text class="cls-1" transform="translate(198.15 111.88) rotate(-32.97)">o</text><text class="cls-1" transform="translate(221.57 96.26) rotate(-27.44)">w</text><text class="cls-1" transform="translate(258.16 77.52) rotate(-21.73)">n</text></g></g></svg>