<svg xmlns="http://www.w3.org/2000/svg" viewBox="0 0 799.63 799.64"><defs><style>.cls-1{font-size:47.5px;font-family:Sabon-BoldItalic, Sabon;font-weight:700;font-style:italic;}</style></defs><g id="Layer_2" data-name="Layer 2"><g id="Layer_1-2" data-name="Layer 1"><text class="cls-1" transform="translate(297.01 54.96) rotate(-12.84)">W</text><text class="cls-1" transform="translate(341.73 45.25) rotate(-7.13)">h</text><text class="cls-1" transform="matrix(1, -0.05, 0.05, 1, 367.39, 42.04)">a</text><text class="cls-1" transform="translate(392.38 40.69) rotate(0.93)">t</text><text class="cls-1" transform="matrix(1, 0.04, -0.04, 1, 407.92, 40.85)"> </text><text class="cls-1" transform="matrix(1, 0.09, -0.09, 1, 420.69, 41.17)">h</text><text class="cls-1" transform="translate(446.42 43.59) rotate(9.42)">a</text><text class="cls-1" transform="translate(471.03 47.62) rotate(13.56)">d</text><text class="cls-1" transform="translate(497.05 54.08) rotate(16.74)"> </text><text class="cls-1" transform="translate(509.34 57.67) rotate(19.43)">c</text><text class="cls-1" transform="translate(528.77 64.43) rotate(23.09)">o</text><text class="cls-1" transform="translate(551.78 74.4) rotate(26.2)">l</text><text class="cls-1" transform="matrix(0.87, 0.49, -0.49, 0.87, 564.09, 80.27)">o</text><text class="cls-1" transform="translate(585.84 92.41) rotate(33.41)">n</text><text class="cls-1" transform="matrix(0.8, 0.6, -0.6, 0.8, 608.12, 107.25)">s</text><text class="cls-1" transform="translate(622.57 118.19) rotate(39.43)"> </text><text class="cls-1" transform="translate(632.56 126.18) rotate(42.43)">a</text><text class="cls-1" transform="matrix(0.69, 0.73, -0.73, 0.69, 650.99, 142.96)">n</text><text class="cls-1" transform="matrix(0.63, 0.77, -0.77, 0.63, 669.37, 162.31)">d</text><text class="cls-1" transform="matrix(0.59, 0.81, -0.81, 0.59, 686.19, 183.19)"> </text><text class="cls-1" transform="matrix(0.55, 0.83, -0.83, 0.55, 693.82, 193.54)">s</text><text class="cls-1" transform="translate(703.85 208.53) rotate(59.45)">e</text><text class="cls-1" transform="matrix(0.44, 0.9, -0.9, 0.44, 714.58, 225.91)">m</text><text class="cls-1" transform="translate(731.15 261.18) rotate(68.47)">i</text><text class="cls-1" transform="translate(736.54 274.74) rotate(71.03)">-</text><text class="cls-1" transform="translate(742.17 290.93) rotate(74.07)">c</text><text class="cls-1" transform="translate(747.91 310.7) rotate(77.73)">o</text><text class="cls-1" transform="matrix(0.16, 0.99, -0.99, 0.16, 753.09, 335.22)">l</text><text class="cls-1" transform="translate(755.43 348.65) rotate(83.92)">o</text><text class="cls-1" transform="matrix(0.03, 1, -1, 0.03, 758.12, 373.44)">n</text><text class="cls-1" transform="matrix(-0.03, 1, -1, -0.03, 758.93, 400.19)">s</text><text class="cls-1" transform="translate(758.41 418.32) rotate(93.95)"> </text><text class="cls-1" transform="translate(757.55 431.17) rotate(96.2)">t</text><text class="cls-1" transform="translate(756.04 446.46) rotate(99.42)">o</text><text class="cls-1" transform="translate(751.79 471.19) rotate(102.46)"> </text><text class="cls-1" transform="translate(749.24 483.67) rotate(105.64)">d</text><text class="cls-1" transform="matrix(-0.34, 0.94, -0.94, -0.34, 742.04, 509.35)">o</text><text class="cls-1" transform="translate(733.41 532.91) rotate(112.83)"> </text><text class="cls-1" transform="translate(728.88 544.76) rotate(116.76)">w</text><text class="cls-1" transform="matrix(-0.51, 0.86, -0.86, -0.51, 712.18, 577.06)">i</text><text class="cls-1" transform="matrix(-0.55, 0.84, -0.84, -0.55, 704.7, 589.62)">t</text><text class="cls-1" transform="translate(696.42 602.57) rotate(126.51)">h</text><text class="cls-1" transform="translate(680.84 623.33) rotate(129.58)"> </text><text class="cls-1" transform="matrix(-0.67, 0.75, -0.75, -0.67, 672.63, 633.3)">i</text><text class="cls-1" transform="translate(662.91 644.21) rotate(134.16)">t</text><text class="cls-1" transform="matrix(-0.72, 0.69, -0.69, -0.72, 652.1, 655.31)"> </text><text class="cls-1" transform="matrix(-0.77, 0.64, -0.64, -0.77, 643.22, 664.35)">w</text><text class="cls-1" transform="matrix(-0.82, 0.57, -0.57, -0.82, 615.2, 687.36)">h</text><text class="cls-1" transform="translate(593.98 702.11) rotate(149.27)">a</text><text class="cls-1" transform="translate(572.38 714.8) rotate(152.5)">t</text><text class="cls-1" transform="translate(558.63 721.94) rotate(154.77)"> </text><text class="cls-1" transform="matrix(-0.93, 0.38, -0.38, -0.93, 547.15, 727.56)">h</text><text class="cls-1" transform="translate(523.23 737.29) rotate(161.96)">a</text><text class="cls-1" transform="translate(499.54 745.06) rotate(166.11)">d</text><text class="cls-1" transform="matrix(-0.98, 0.19, -0.19, -0.98, 473.47, 751.32)"> </text><text class="cls-1" transform="translate(460.88 753.8) rotate(171.97)">c</text><text class="cls-1" transform="translate(440.51 756.77) rotate(175.59)">o</text><text class="cls-1" transform="translate(415.85 759.12) rotate(-179.07)">m</text><text class="cls-1" transform="translate(377.08 758.65) rotate(-173.29)">m</text><text class="cls-1" transform="translate(338.51 753.84) rotate(-168.2)">a</text><text class="cls-1" transform="translate(314.05 748.63) rotate(-164.75)">s</text><text class="cls-1" transform="translate(296.59 743.82) rotate(-162.26)"> </text><text class="cls-1" transform="translate(284.29 739.92) rotate(-159.97)">t</text><text class="cls-1" transform="translate(269.82 734.8) rotate(-156.73)">o</text><text class="cls-1" transform="translate(246.85 724.76) rotate(-153.7)"> </text><text class="cls-1" transform="translate(235.32 719.29) rotate(-150.53)">d</text><text class="cls-1" transform="translate(212.08 706.14) rotate(-146.41)">o</text><text class="cls-1" transform="matrix(-0.8, -0.6, 0.6, -0.8, 191.27, 692.14)"> </text><text class="cls-1" transform="translate(180.84 684.92) rotate(-139.5)">w</text><text class="cls-1" transform="matrix(-0.71, -0.7, 0.7, -0.71, 153.43, 661.03)">i</text><text class="cls-1" transform="matrix(-0.68, -0.73, 0.73, -0.68, 142.99, 650.79)">t</text><text class="cls-1" transform="matrix(-0.64, -0.77, 0.77, -0.64, 132.37, 639.67)">h</text><text class="cls-1" transform="translate(115.89 619.64) rotate(-126.74)"> </text><text class="cls-1" transform="matrix(-0.57, -0.82, 0.82, -0.57, 108.14, 609.3)">i</text><text class="cls-1" transform="matrix(-0.53, -0.85, 0.85, -0.53, 99.84, 597.27)">t</text><text class="cls-1" transform="translate(91.62 584.15) rotate(-119.88)"> </text><text class="cls-1" transform="translate(84.93 573.36) rotate(-115.96)">w</text><text class="cls-1" transform="translate(69.24 540.69) rotate(-110.99)">h</text><text class="cls-1" transform="translate(59.99 516.57) rotate(-106.91)">a</text><text class="cls-1" transform="matrix(-0.24, -0.97, 0.97, -0.24, 52.82, 492.57)">t</text><text class="cls-1" transform="translate(49.18 477.51) rotate(-101.38)"> </text><text class="cls-1" transform="matrix(-0.14, -0.99, 0.99, -0.14, 46.48, 465.02)">h</text><text class="cls-1" transform="translate(42.75 439.45) rotate(-94.24)">a</text><text class="cls-1" transform="matrix(-0.02, -1, 1, -0.02, 41.04, 414.67)">d</text><text class="cls-1" transform="matrix(0.05, -1, 1, 0.05, 40.96, 387.76)"> </text><text class="cls-1" transform="matrix(0.1, -0.99, 0.99, 0.1, 41.42, 375.01)">p</text><text class="cls-1" transform="matrix(0.17, -0.99, 0.99, 0.17, 44.19, 349.26)">e</text><text class="cls-1" transform="translate(47.7 328.91) rotate(-77.19)">r</text><text class="cls-1" transform="matrix(0.27, -0.96, 0.96, 0.27, 51.74, 311.27)">i</text><text class="cls-1" transform="translate(55.45 297.22) rotate(-71.38)">o</text><text class="cls-1" transform="translate(63.36 273.6) rotate(-67.24)">d</text><text class="cls-1" transform="matrix(0.44, -0.9, 0.9, 0.44, 73.82, 248.97)">s</text><text class="cls-1" transform="matrix(0.48, -0.88, 0.88, 0.48, 81.91, 232.76)"> </text><text class="cls-1" transform="matrix(0.52, -0.86, 0.86, 0.52, 88.09, 221.45)">t</text><text class="cls-1" transform="matrix(0.56, -0.83, 0.83, 0.56, 95.91, 208.21)">o</text><text class="cls-1" transform="matrix(0.61, -0.8, 0.8, 0.61, 110.17, 187.58)"> </text><text class="cls-1" transform="translate(117.74 177.32) rotate(-49.53)">d</text><text class="cls-1" transform="translate(135.07 157.01) rotate(-45.44)">o</text><text class="cls-1" transform="translate(152.77 139.26) rotate(-42.44)"> </text><text class="cls-1" transform="translate(161.85 130.39) rotate(-38.54)">w</text><text class="cls-1" transform="translate(190.53 108) rotate(-34.5)">i</text><text class="cls-1" transform="matrix(0.85, -0.53, 0.53, 0.85, 202.56, 99.72)">t</text><text class="cls-1" transform="translate(215.49 91.41) rotate(-28.81)">h</text><text class="cls-1" transform="matrix(0.9, -0.43, 0.43, 0.9, 238.32, 79.04)"> </text><text class="cls-1" transform="translate(249.92 73.43) rotate(-23.5)">i</text><text class="cls-1" transform="translate(263.32 67.58) rotate(-21.09)">t</text></g></g></svg>