<svg xmlns="http://www.w3.org/2000/svg" viewBox="0 0 817.69 817.69"><defs><style>.cls-1{font-size:58px;font-family:Sabon-BoldItalic, Sabon;font-weight:700;font-style:italic;}</style></defs><g id="Layer_2" data-name="Layer 2"><g id="Layer_1-2" data-name="Layer 1"><text class="cls-1" transform="matrix(0.97, -0.26, 0.26, 0.97, 306.45, 64.53)">i</text><text class="cls-1" transform="translate(323.6 59.89) rotate(-12.13)">t</text><text class="cls-1" transform="translate(342.01 55.96) rotate(-9.37)"> </text><text class="cls-1" transform="matrix(1, -0.08, 0.08, 1, 357.03, 52.84)">w</text><text class="cls-1" transform="translate(401.02 49.59) rotate(1.21)">a</text><text class="cls-1" transform="matrix(1, 0.09, -0.09, 1, 431.45, 50.37)">s</text><text class="cls-1" transform="translate(453.41 52.49) rotate(8.34)"> </text><text class="cls-1" transform="translate(468.77 54.48) rotate(12.02)">o</text><text class="cls-1" transform="translate(498.4 60.7) rotate(17.06)">n</text><text class="cls-1" transform="translate(529.5 70.51) rotate(21.01)">l</text><text class="cls-1" transform="translate(545.02 76.23) rotate(24.7)">y</text><text class="cls-1" transform="matrix(0.88, 0.47, -0.47, 0.88, 571.73, 88.74)"> </text><text class="cls-1" transform="translate(585.5 96.04) rotate(31.31)">s</text><text class="cls-1" transform="matrix(0.81, 0.58, -0.58, 0.81, 604.29, 107.25)">o</text><text class="cls-1" transform="translate(629.11 124.32) rotate(41.62)">m</text><text class="cls-1" transform="matrix(0.68, 0.74, -0.74, 0.68, 664.15, 156.13)">e</text><text class="cls-1" transform="matrix(0.63, 0.78, -0.78, 0.63, 681.13, 174.67)">t</text><text class="cls-1" transform="matrix(0.58, 0.82, -0.82, 0.58, 693.11, 188.96)">h</text><text class="cls-1" transform="translate(711.13 214.88) rotate(58.72)">i</text><text class="cls-1" transform="matrix(0.46, 0.89, -0.89, 0.46, 720.51, 229.77)">n</text><text class="cls-1" transform="matrix(0.38, 0.92, -0.92, 0.38, 735.33, 258.63)">g</text><text class="cls-1" transform="matrix(0.32, 0.95, -0.95, 0.32, 745.98, 284.93)"> </text><text class="cls-1" transform="translate(751.1 299.72) rotate(73.88)">t</text><text class="cls-1" transform="matrix(0.21, 0.98, -0.98, 0.21, 756.51, 317.55)">h</text><text class="cls-1" transform="matrix(0.12, 0.99, -0.99, 0.12, 763.1, 348.26)">a</text><text class="cls-1" transform="matrix(0.06, 1, -1, 0.06, 766.71, 378.51)">t</text><text class="cls-1" transform="translate(767.7 397.41) rotate(89.07)"> </text><text class="cls-1" transform="translate(768.18 412.83) rotate(93.16)">h</text><text class="cls-1" transform="translate(766.46 444.19) rotate(98.06)">a</text><text class="cls-1" transform="translate(762.28 474.21) rotate(103)">p</text><text class="cls-1" transform="matrix(-0.31, 0.95, -0.95, -0.31, 755.25, 504.8)">p</text><text class="cls-1" transform="matrix(-0.38, 0.92, -0.92, -0.38, 745.41, 534.69)">e</text><text class="cls-1" transform="matrix(-0.46, 0.89, -0.89, -0.46, 736, 557.82)">n</text><text class="cls-1" transform="matrix(-0.53, 0.85, -0.85, -0.53, 721.04, 586.67)">e</text><text class="cls-1" transform="translate(708.04 608.01) rotate(126.35)">d</text><text class="cls-1" transform="matrix(-0.65, 0.76, -0.76, -0.65, 688.5, 634.12)">,</text><text class="cls-1" transform="translate(678.39 646.11) rotate(132.66)"> </text><text class="cls-1" transform="matrix(-0.72, 0.69, -0.69, -0.72, 668.06, 657.7)">a</text><text class="cls-1" transform="translate(646.22 678.68) rotate(141.28)">n</text><text class="cls-1" transform="translate(620.94 699) rotate(146.44)">d</text><text class="cls-1" transform="translate(593.63 716.8) rotate(150.27)"> </text><text class="cls-1" transform="translate(580.28 724.72) rotate(153.95)">a</text><text class="cls-1" transform="translate(552.89 737.97) rotate(158.14)">s</text><text class="cls-1" transform="matrix(-0.95, 0.32, -0.32, -0.95, 532.43, 746.1)"> </text><text class="cls-1" transform="translate(517.63 751.19) rotate(163.86)">i</text><text class="cls-1" transform="matrix(-0.97, 0.23, -0.23, -0.97, 500.58, 756.15)">t</text><text class="cls-1" transform="translate(482.22 760.43) rotate(169.56)"> </text><text class="cls-1" transform="translate(467.03 763.52) rotate(173.33)">h</text><text class="cls-1" transform="translate(435.84 767.18) rotate(178.21)">a</text><text class="cls-1" transform="translate(405.54 768.18) rotate(-176.95)">p</text><text class="cls-1" transform="translate(374.18 766.55) rotate(-171.97)">p</text><text class="cls-1" transform="matrix(-0.98, -0.22, 0.22, -0.98, 343.02, 762.06)">e</text><text class="cls-1" transform="translate(318.62 756.81) rotate(-162.83)">n</text><text class="cls-1" transform="translate(287.6 747.1) rotate(-158.21)">e</text><text class="cls-1" transform="matrix(-0.9, -0.44, 0.44, -0.9, 264.35, 738)">d</text><text class="cls-1" transform="matrix(-0.86, -0.5, 0.5, -0.86, 235.27, 723.27)"> </text><text class="cls-1" transform="translate(221.73 715.68) rotate(-146.09)">a</text><text class="cls-1" transform="matrix(-0.79, -0.62, 0.62, -0.79, 196.56, 698.6)">s</text><text class="cls-1" transform="matrix(-0.75, -0.66, 0.66, -0.75, 179.25, 684.95)"> </text><text class="cls-1" transform="translate(167.37 674.95) rotate(-135.29)">a</text><text class="cls-1" transform="translate(145.85 653.35) rotate(-131.65)"> </text><text class="cls-1" transform="matrix(-0.61, -0.79, 0.79, -0.61, 135.34, 641.96)">p</text><text class="cls-1" transform="matrix(-0.55, -0.83, 0.83, -0.55, 116.09, 617.08)">e</text><text class="cls-1" transform="translate(102.28 596.1) rotate(-119.67)">r</text><text class="cls-1" transform="translate(91.42 576.98) rotate(-116.41)">f</text><text class="cls-1" transform="matrix(-0.39, -0.92, 0.92, -0.39, 82.98, 560.25)">e</text><text class="cls-1" transform="translate(73.21 537.18) rotate(-108.87)">c</text><text class="cls-1" transform="matrix(-0.26, -0.96, 0.96, -0.26, 65.16, 513.37)">t</text><text class="cls-1" transform="translate(60.2 495.22) rotate(-102.49)">l</text><text class="cls-1" transform="translate(56.4 479.12) rotate(-98.81)">y</text><text class="cls-1" transform="matrix(-0.09, -1, 1, -0.09, 52.08, 449.96)"> </text><text class="cls-1" transform="translate(50.37 434.57) rotate(-91.42)">n</text><text class="cls-1" transform="translate(49.57 402.13) rotate(-86.5)">a</text><text class="cls-1" transform="translate(51.61 371.75) rotate(-82.6)">t</text><text class="cls-1" transform="translate(53.73 353.25) rotate(-78.51)">u</text><text class="cls-1" transform="translate(60.39 321.38) rotate(-74.14)">r</text><text class="cls-1" transform="translate(66.18 300.32) rotate(-69.94)">a</text><text class="cls-1" transform="translate(76.84 271.75) rotate(-66.16)">l</text><text class="cls-1" transform="translate(83.59 256.46) rotate(-63.57)"> </text><text class="cls-1" transform="translate(90.23 242.47) rotate(-59.8)">h</text><text class="cls-1" transform="translate(106.01 215.33) rotate(-54.89)">a</text><text class="cls-1" transform="translate(123.41 190.48) rotate(-49.98)">p</text><text class="cls-1" transform="translate(143.57 166.42) rotate(-45.01)">p</text><text class="cls-1" transform="matrix(0.76, -0.65, 0.65, 0.76, 165.89, 144.23)">e</text><text class="cls-1" transform="translate(184.76 127.86) rotate(-35.97)">n</text><text class="cls-1" transform="matrix(0.85, -0.53, 0.53, 0.85, 211.28, 108.9)">i</text><text class="cls-1" transform="matrix(0.88, -0.47, 0.47, 0.88, 226.04, 99.35)">n</text><text class="cls-1" transform="matrix(0.92, -0.39, 0.39, 0.92, 254.76, 84.17)">g</text></g></g></svg>