<svg xmlns="http://www.w3.org/2000/svg" viewBox="0 0 784.17 784.17"><defs><style>.cls-1{font-size:38.5px;font-family:Sabon-BoldItalic, Sabon;font-weight:700;font-style:italic;}</style></defs><g id="Layer_2" data-name="Layer 2"><g id="Layer_1-2" data-name="Layer 1"><text class="cls-1" transform="translate(289.66 47.65) rotate(-14.42)">A</text><text class="cls-1" transform="translate(314.79 41.25) rotate(-10.6)">n</text><text class="cls-1" transform="translate(336.13 37.25) rotate(-7.13)">d</text><text class="cls-1" transform="translate(357.77 34.66) rotate(-4.57)"> </text><text class="cls-1" transform="translate(368.06 33.57) rotate(-1.42)">w</text><text class="cls-1" transform="translate(397.57 32.97) rotate(2.54)">h</text><text class="cls-1" transform="translate(418.58 33.9) rotate(5.81)">a</text><text class="cls-1" transform="translate(438.85 36.05) rotate(8.43)">t</text><text class="cls-1" transform="matrix(0.98, 0.18, -0.18, 0.98, 451.32, 37.91)"> </text><text class="cls-1" transform="translate(461.57 39.63) rotate(12.86)">d</text><text class="cls-1" transform="matrix(0.96, 0.28, -0.28, 0.96, 482.77, 44.48)">o</text><text class="cls-1" transform="translate(502.28 50.21) rotate(19.23)">e</text><text class="cls-1" transform="matrix(0.93, 0.37, -0.37, 0.93, 518.13, 55.75)">s</text><text class="cls-1" transform="translate(531.81 61.25) rotate(23.78)"> </text><text class="cls-1" transform="translate(541.39 65.35) rotate(26.25)">a</text><text class="cls-1" transform="translate(559.64 74.46) rotate(28.72)"> </text><text class="cls-1" transform="matrix(0.86, 0.51, -0.51, 0.86, 568.83, 79.42)">c</text><text class="cls-1" transform="translate(583.24 87.98) rotate(33.85)">o</text><text class="cls-1" transform="matrix(0.79, 0.62, -0.62, 0.79, 600.16, 99.06)">m</text><text class="cls-1" transform="translate(625 118.42) rotate(42.97)">m</text><text class="cls-1" transform="translate(648 140.11) rotate(47.08)">a</text><text class="cls-1" transform="matrix(0.65, 0.76, -0.76, 0.65, 661.82, 155.12)"> </text><text class="cls-1" transform="translate(668.68 162.95) rotate(52.08)">d</text><text class="cls-1" transform="matrix(0.57, 0.82, -0.82, 0.57, 682.02, 180.09)">o</text><text class="cls-1" transform="translate(693.51 196.94) rotate(57.88)">,</text><text class="cls-1" transform="matrix(0.51, 0.86, -0.86, 0.51, 699.11, 205.85)"> </text><text class="cls-1" transform="translate(704.48 214.77) rotate(62.02)">a</text><text class="cls-1" transform="translate(713.95 232.81) rotate(64.49)"> </text><text class="cls-1" transform="translate(718.52 242.24) rotate(66.68)">c</text><text class="cls-1" transform="matrix(0.35, 0.94, -0.94, 0.35, 725.21, 257.61)">o</text><text class="cls-1" transform="translate(732.44 276.48) rotate(73.82)">m</text><text class="cls-1" transform="translate(741.24 306.71) rotate(78.88)">m</text><text class="cls-1" transform="matrix(0.12, 0.99, -0.99, 0.12, 747.15, 337.75)">a</text><text class="cls-1" transform="translate(749.53 358.03) rotate(85.47)"> </text><text class="cls-1" transform="matrix(0.03, 1, -1, 0.03, 750.48, 368.39)">d</text><text class="cls-1" transform="translate(751.22 390.12) rotate(91.31)">o</text><text class="cls-1" transform="translate(750.72 410.44) rotate(94.23)">e</text><text class="cls-1" transform="translate(749.47 427.21) rotate(96.74)">s</text><text class="cls-1" transform="matrix(-0.15, 0.99, -0.99, -0.15, 747.71, 441.83)"> </text><text class="cls-1" transform="matrix(-0.2, 0.98, -0.98, -0.2, 746.26, 452.13)">n</text><text class="cls-1" transform="translate(741.98 473.44) rotate(104.7)">o</text><text class="cls-1" transform="matrix(-0.3, 0.95, -0.95, -0.3, 736.73, 493.12)">t</text><text class="cls-1" transform="translate(733.11 505.08) rotate(110.04)">h</text><text class="cls-1" transform="matrix(-0.39, 0.92, -0.92, -0.39, 725.78, 524.88)">i</text><text class="cls-1" transform="matrix(-0.43, 0.9, -0.9, -0.43, 721.33, 535.84)">n</text><text class="cls-1" transform="translate(711.99 555.44) rotate(118.64)">g</text><text class="cls-1" transform="translate(702.82 572.08) rotate(120.99)"> </text><text class="cls-1" transform="matrix(-0.55, 0.83, -0.83, -0.55, 697.56, 581.08)">b</text><text class="cls-1" transform="translate(685.97 598.61) rotate(126.9)">u</text><text class="cls-1" transform="translate(672.81 615.97) rotate(129.63)">t</text><text class="cls-1" transform="matrix(-0.66, 0.75, -0.75, -0.66, 664.76, 625.67)"> </text><text class="cls-1" transform="matrix(-0.7, 0.71, -0.71, -0.7, 658.16, 633.63)">m</text><text class="cls-1" transform="translate(635.75 655.93) rotate(138.9)">a</text><text class="cls-1" transform="translate(620.45 669.29) rotate(142.13)">k</text><text class="cls-1" transform="translate(604.38 681.75) rotate(145.08)">e</text><text class="cls-1" transform="matrix(-0.84, 0.54, -0.54, -0.84, 590.54, 691.34)"> </text><text class="cls-1" transform="matrix(-0.86, 0.51, -0.51, -0.86, 581.79, 697.04)">e</text><text class="cls-1" transform="translate(567.39 705.62) rotate(152.39)">a</text><text class="cls-1" transform="translate(549.32 715) rotate(155.2)">s</text><text class="cls-1" transform="translate(536.03 721.21) rotate(157.95)">y</text><text class="cls-1" transform="translate(517.75 728.52) rotate(160.37)"> </text><text class="cls-1" transform="translate(507.96 732.13) rotate(162.85)">a</text><text class="cls-1" transform="translate(488.46 738.04) rotate(165.33)"> </text><text class="cls-1" transform="matrix(-0.98, 0.22, -0.22, -0.98, 478.31, 740.72)">t</text><text class="cls-1" transform="translate(466.14 743.6) rotate(169.88)">h</text><text class="cls-1" transform="translate(445.33 747.22) rotate(172.51)">i</text><text class="cls-1" transform="translate(433.63 748.88) rotate(175.18)">n</text><text class="cls-1" transform="matrix(-1, 0.03, -0.03, -1, 411.98, 750.67)">g</text><text class="cls-1" transform="translate(393.01 751.15) rotate(-179.07)"> </text><text class="cls-1" transform="matrix(-1, -0.04, 0.04, -1, 382.49, 751.02)">t</text><text class="cls-1" transform="translate(369.97 750.58) rotate(-174.83)">h</text><text class="cls-1" transform="translate(349.03 748.68) rotate(-171.54)">a</text><text class="cls-1" transform="translate(328.9 745.6) rotate(-168.91)">t</text><text class="cls-1" transform="translate(316.53 743.16) rotate(-167.05)"> </text><text class="cls-1" transform="matrix(-0.97, -0.25, 0.25, -0.97, 306.28, 740.82)">i</text><text class="cls-1" transform="translate(294.77 737.8) rotate(-163.28)">f</text><text class="cls-1" transform="translate(282.7 734.16) rotate(-161.42)"> </text><text class="cls-1" transform="translate(272.81 730.94) rotate(-159)">y</text><text class="cls-1" transform="translate(254.49 723.93) rotate(-155.8)">o</text><text class="cls-1" transform="matrix(-0.89, -0.46, 0.46, -0.89, 235.94, 715.63)">u</text><text class="cls-1" transform="translate(216.67 705.43) rotate(-149.85)"> </text><text class="cls-1" transform="matrix(-0.85, -0.53, 0.53, -0.85, 207.6, 700.17)">l</text><text class="cls-1" transform="matrix(-0.83, -0.56, 0.56, -0.83, 198.09, 694.27)">i</text><text class="cls-1" transform="matrix(-0.81, -0.59, 0.59, -0.81, 188.19, 687.79)">k</text><text class="cls-1" transform="translate(171.8 675.71) rotate(-140.77)">e</text><text class="cls-1" transform="translate(158.8 665.02) rotate(-138.6)"> </text><text class="cls-1" transform="translate(150.92 658.09) rotate(-136.83)">i</text><text class="cls-1" transform="translate(142.23 649.96) rotate(-134.88)">t</text><text class="cls-1" transform="matrix(-0.68, -0.73, 0.73, -0.68, 133.34, 641.01)"> </text><text class="cls-1" transform="translate(126.16 633.41) rotate(-130.88)">e</text><text class="cls-1" transform="translate(115.14 620.81) rotate(-127.83)">n</text><text class="cls-1" transform="matrix(-0.57, -0.82, 0.82, -0.57, 101.83, 603.64)">o</text><text class="cls-1" transform="translate(90.3 586.92) rotate(-121.14)">u</text><text class="cls-1" transform="translate(79.09 568.3) rotate(-117.89)">g</text><text class="cls-1" transform="translate(70.22 551.63) rotate(-114.7)">h</text><text class="cls-1" transform="translate(61.49 532.39) rotate(-112.16)"> </text><text class="cls-1" transform="translate(57.52 522.69) rotate(-110.36)">i</text><text class="cls-1" transform="matrix(-0.31, -0.95, 0.95, -0.31, 53.36, 511.57)">s</text><text class="cls-1" transform="translate(48.78 497.53) rotate(-106.19)"> </text><text class="cls-1" transform="translate(45.81 487.54) rotate(-104)">e</text><text class="cls-1" transform="translate(41.7 471.29) rotate(-101.03)">a</text><text class="cls-1" transform="translate(37.87 451.31) rotate(-98.23)">s</text><text class="cls-1" transform="matrix(-0.1, -1, 1, -0.1, 35.7, 436.79)">y</text><text class="cls-1" transform="translate(33.91 417.16) rotate(-93.1)"> </text><text class="cls-1" transform="translate(33.28 406.72) rotate(-90.95)">e</text><text class="cls-1" transform="matrix(0.04, -1, 1, 0.04, 32.92, 389.97)">n</text><text class="cls-1" transform="translate(33.71 368.25) rotate(-84.61)">o</text><text class="cls-1" transform="translate(35.59 348.06) rotate(-81.27)">u</text><text class="cls-1" transform="translate(38.91 326.59) rotate(-78.01)">g</text><text class="cls-1" transform="translate(42.8 308.1) rotate(-74.81)">h</text><text class="cls-1" transform="matrix(0.3, -0.95, 0.95, 0.3, 48.43, 287.76)"> </text><text class="cls-1" transform="translate(51.32 277.82) rotate(-69.06)">w</text><text class="cls-1" transform="matrix(0.41, -0.91, 0.91, 0.41, 62.12, 250.28)">i</text><text class="cls-1" transform="translate(66.99 239.44) rotate(-63.78)">t</text><text class="cls-1" transform="translate(72.43 228.16) rotate(-61.09)">h</text><text class="cls-1" transform="translate(82.6 209.75) rotate(-57.79)">o</text><text class="cls-1" transform="matrix(0.58, -0.81, 0.81, 0.58, 93.38, 192.57)">u</text><text class="cls-1" transform="translate(106.14 174.89) rotate(-51.72)">t</text><text class="cls-1" transform="matrix(0.64, -0.76, 0.76, 0.64, 113.96, 165)"> </text><text class="cls-1" transform="translate(120.71 156.97) rotate(-48.05)">t</text><text class="cls-1" transform="matrix(0.7, -0.71, 0.71, 0.7, 129.01, 147.57)">h</text><text class="cls-1" transform="matrix(0.74, -0.67, 0.67, 0.74, 143.82, 132.63)">e</text><text class="cls-1" transform="matrix(0.76, -0.65, 0.65, 0.76, 156.31, 121.31)"> </text><text class="cls-1" transform="matrix(0.79, -0.62, 0.62, 0.79, 164.24, 114.51)">c</text><text class="cls-1" transform="matrix(0.82, -0.58, 0.58, 0.82, 177.4, 104.13)">o</text><text class="cls-1" transform="translate(193.83 92.32) rotate(-30.98)">m</text><text class="cls-1" transform="translate(220.83 76.08) rotate(-25.94)">m</text><text class="cls-1" transform="matrix(0.93, -0.37, 0.37, 0.93, 249.32, 62.43)">a</text><text class="cls-1" transform="translate(268.28 54.96) rotate(-19.31)">.</text><text class="cls-1" transform="matrix(0.95, -0.3, 0.3, 0.95, 278.22, 51.48)"> </text></g></g></svg>