<svg xmlns="http://www.w3.org/2000/svg" viewBox="0 0 815.97 815.97"><defs><style>.cls-1{font-size:57px;font-family:Sabon-BoldItalic, Sabon;font-weight:700;font-style:italic;}</style></defs><g id="Layer_2" data-name="Layer 2"><g id="Layer_1-2" data-name="Layer 1"><text class="cls-1" transform="translate(305.21 63.35) rotate(-13.45)">A</text><text class="cls-1" transform="translate(342.31 54.6) rotate(-7.85)">n</text><text class="cls-1" transform="translate(373.89 50.21) rotate(-2.79)">d</text><text class="cls-1" transform="translate(405.91 48.9) rotate(0.93)"> </text><text class="cls-1" transform="matrix(1, 0.08, -0.08, 1, 421.15, 48.85)">n</text><text class="cls-1" transform="matrix(0.99, 0.17, -0.17, 0.99, 452.95, 51.44)">o</text><text class="cls-1" transform="translate(482.26 55.97) rotate(15.42)">w</text><text class="cls-1" transform="translate(524.08 68.08) rotate(20.13)"> </text><text class="cls-1" transform="matrix(0.91, 0.42, -0.42, 0.91, 538.45, 72.69)">w</text><text class="cls-1" transform="translate(577.68 91.14) rotate(30.75)">h</text><text class="cls-1" transform="translate(604.24 106.94) rotate(35.59)">a</text><text class="cls-1" transform="matrix(0.77, 0.64, -0.64, 0.77, 628.49, 124.5)">t</text><text class="cls-1" transform="translate(642.79 136.3) rotate(42.12)"> </text><text class="cls-1" transform="matrix(0.7, 0.72, -0.72, 0.7, 654.27, 146.27)">d</text><text class="cls-1" transform="matrix(0.63, 0.77, -0.77, 0.63, 676.48, 169.18)">o</text><text class="cls-1" transform="matrix(0.57, 0.82, -0.82, 0.57, 695.33, 192.38)">e</text><text class="cls-1" transform="translate(709.44 212.64) rotate(58.77)">s</text><text class="cls-1" transform="matrix(0.47, 0.88, -0.88, 0.47, 720.61, 231.2)"> </text><text class="cls-1" transform="translate(728.05 244.5) rotate(65.35)">a</text><text class="cls-1" transform="matrix(0.36, 0.93, -0.93, 0.36, 740.37, 271.84)"> </text><text class="cls-1" transform="translate(745.99 286.07) rotate(72.2)">c</text><text class="cls-1" transform="matrix(0.23, 0.97, -0.97, 0.23, 753.63, 309.45)">o</text><text class="cls-1" transform="translate(761 338.15) rotate(82.67)">m</text><text class="cls-1" transform="translate(766.6 383.92) rotate(89.07)">m</text><text class="cls-1" transform="translate(766.61 430.53) rotate(95.97)">a</text><text class="cls-1" transform="translate(763.28 460.33) rotate(99.58)"> </text><text class="cls-1" transform="matrix(-0.23, 0.97, -0.97, -0.23, 761.05, 475.38)">d</text><text class="cls-1" transform="translate(753.67 506.41) rotate(108.32)">o</text><text class="cls-1" transform="translate(744.03 534.81) rotate(111.96)"> </text><text class="cls-1" transform="translate(738.57 549.02) rotate(115.59)">a</text><text class="cls-1" transform="matrix(-0.51, 0.86, -0.86, -0.51, 725.79, 575.92)">n</text><text class="cls-1" transform="matrix(-0.58, 0.81, -0.81, -0.58, 709.63, 603.41)">d</text><text class="cls-1" transform="matrix(-0.63, 0.77, -0.77, -0.63, 690.76, 629.33)"> </text><text class="cls-1" transform="matrix(-0.69, 0.72, -0.72, -0.69, 681.65, 641.4)">w</text><text class="cls-1" transform="translate(651.33 672.4) rotate(139.87)">h</text><text class="cls-1" transform="matrix(-0.82, 0.58, -0.58, -0.82, 627.72, 692.31)">a</text><text class="cls-1" transform="matrix(-0.85, 0.52, -0.52, -0.85, 603.19, 709.47)">t</text><text class="cls-1" transform="translate(587.36 719.13) rotate(151.25)"> </text><text class="cls-1" transform="translate(574.14 726.7) rotate(154.96)">h</text><text class="cls-1" transform="translate(546.17 739.78) rotate(159.82)">a</text><text class="cls-1" transform="translate(518.05 749.98) rotate(163.96)">s</text><text class="cls-1" transform="matrix(-0.97, 0.23, -0.23, -0.97, 497.22, 755.9)"> </text><text class="cls-1" transform="translate(482.22 759.41) rotate(169.57)">i</text><text class="cls-1" transform="translate(465.04 762.6) rotate(172.45)">t</text><text class="cls-1" transform="translate(446.7 765.01) rotate(175.14)"> </text><text class="cls-1" transform="matrix(-1, 0.04, -0.04, -1, 431.37, 766.36)">t</text><text class="cls-1" transform="translate(413.04 767.27) rotate(-178.4)">o</text><text class="cls-1" transform="translate(383.06 766.22) rotate(-174.82)"> </text><text class="cls-1" transform="translate(367.87 765.14) rotate(-171.05)">d</text><text class="cls-1" transform="translate(336.35 760.17) rotate(-166.11)">o</text><text class="cls-1" transform="translate(307.3 752.76) rotate(-162.47)"> </text><text class="cls-1" transform="translate(292.69 748.41) rotate(-158.84)">a</text><text class="cls-1" transform="translate(264.89 737.74) rotate(-153.89)">n</text><text class="cls-1" transform="matrix(-0.86, -0.52, 0.52, -0.86, 236.26, 723.75)">d</text><text class="cls-1" transform="matrix(-0.82, -0.57, 0.57, -0.82, 208.97, 706.92)"> </text><text class="cls-1" transform="translate(196.24 698.76) rotate(-140.37)">w</text><text class="cls-1" transform="translate(163.01 670.89) rotate(-134.5)">h</text><text class="cls-1" transform="translate(141.37 648.85) rotate(-129.77)">y</text><text class="cls-1" transform="matrix(-0.59, -0.81, 0.81, -0.59, 122.98, 626.46)"> </text><text class="cls-1" transform="translate(113.74 614.35) rotate(-122.49)">d</text><text class="cls-1" transform="translate(96.62 587.46) rotate(-117.57)">o</text><text class="cls-1" transform="matrix(-0.41, -0.91, 0.91, -0.41, 82.92, 560.76)"> </text><text class="cls-1" transform="translate(76.63 546.74) rotate(-111.14)">I</text><text class="cls-1" transform="matrix(-0.31, -0.95, 0.95, -0.31, 69.61, 528.46)"> </text><text class="cls-1" transform="translate(64.72 513.87) rotate(-105.6)">f</text><text class="cls-1" transform="translate(59.67 496.19) rotate(-102.14)">e</text><text class="cls-1" transform="translate(54.47 472.09) rotate(-98.19)">e</text><text class="cls-1" transform="translate(51.04 447.56) rotate(-94.92)">l</text><text class="cls-1" transform="translate(49.64 431.19) rotate(-92.4)"> </text><text class="cls-1" transform="matrix(0.02, -1, 1, 0.02, 48.75, 415.97)">a</text><text class="cls-1" transform="translate(49.47 386.05) rotate(-84.8)">s</text><text class="cls-1" transform="translate(51.51 364.47) rotate(-81.85)"> </text><text class="cls-1" transform="translate(53.62 349.25) rotate(-79.05)">I</text><text class="cls-1" transform="translate(57.38 330.03) rotate(-76.25)"> </text><text class="cls-1" transform="translate(60.71 315.18) rotate(-72.45)">d</text><text class="cls-1" transform="translate(70.33 284.78) rotate(-67.49)">o</text><text class="cls-1" transform="translate(82.01 257.16) rotate(-63.86)"> </text><text class="cls-1" transform="translate(88.5 243.37) rotate(-60.25)">a</text><text class="cls-1" transform="translate(103.24 217.46) rotate(-55.41)">b</text><text class="cls-1" transform="translate(120.77 192.02) rotate(-50.59)">o</text><text class="cls-1" transform="matrix(0.7, -0.72, 0.72, 0.7, 139.62, 168.96)">u</text><text class="cls-1" transform="matrix(0.75, -0.67, 0.67, 0.75, 162.14, 146.19)">t</text><text class="cls-1" transform="translate(176 133.88) rotate(-39.01)"> </text><text class="cls-1" transform="translate(187.93 124.16) rotate(-36.32)">t</text><text class="cls-1" transform="matrix(0.84, -0.54, 0.54, 0.84, 202.56, 113.1)">h</text><text class="cls-1" transform="translate(228.74 96.61) rotate(-27.96)">e</text><text class="cls-1" transform="translate(250 84.64) rotate(-22.28)">m</text></g></g></svg>