<svg id="Layer_1" data-name="Layer 1" xmlns="http://www.w3.org/2000/svg" viewBox="0 0 391 825"><defs><style>.cls-1{font-size:92px;font-family:Sabon-Bold, Sabon;font-weight:700;}</style></defs><text class="cls-1" transform="translate(49.96 -13.42) rotate(108.21)">‘</text><text class="cls-1" transform="matrix(0.33, 0.94, -0.94, 0.33, 45.08, 38.3)">.</text><text class="cls-1" transform="matrix(0.48, 0.87, -0.87, 0.48, 56.78, 68.59)">.</text><text class="cls-1" transform="translate(70.95 93.61) rotate(56.45)">.</text><text class="cls-1" transform="translate(85.96 116.05) rotate(54.44)">.</text><text class="cls-1" transform="matrix(0.58, 0.82, -0.82, 0.58, 100.93, 136.85)">.</text><text class="cls-1" transform="translate(118.27 160.96) rotate(48.45)">.</text><text class="cls-1" transform="translate(137.86 182.74) rotate(43.17)">.</text><text class="cls-1" transform="translate(158.71 202.1) rotate(39.1)">.</text><text class="cls-1" transform="matrix(0.81, 0.59, -0.59, 0.81, 180.28, 219.51)">.</text><text class="cls-1" transform="matrix(0.83, 0.56, -0.56, 0.83, 202.24, 235.41)">.</text><text class="cls-1" transform="translate(224.31 250.17) rotate(32.43)">.</text><text class="cls-1" transform="matrix(0.85, 0.53, -0.53, 0.85, 245.88, 263.84)">.</text><text class="cls-1" transform="translate(267.58 277.24) rotate(31.87)">.</text><text class="cls-1" transform="translate(289.07 290.54) rotate(32.96)">.</text><text class="cls-1" transform="matrix(0.81, 0.58, -0.58, 0.81, 310.01, 304.03)">.</text><text class="cls-1" transform="matrix(0.77, 0.64, -0.64, 0.77, 329.91, 318)">.</text><text class="cls-1" transform="translate(348.01 332.77) rotate(48.18)">.</text><text class="cls-1" transform="translate(363.17 348.68) rotate(62.07)">.</text><text class="cls-1" transform="translate(373.71 366.24) rotate(82.18)">.</text><text class="cls-1" transform="translate(378.8 383.98) rotate(112.81)">.</text><text class="cls-1" transform="matrix(-0.78, 0.63, -0.63, -0.78, 372.84, 401.45)">.</text><text class="cls-1" transform="translate(355.93 415.13) rotate(155.48)">.</text><text class="cls-1" transform="translate(334.21 424.94) rotate(161.82)">.</text><text class="cls-1" transform="translate(310.65 432.61) rotate(164.66)">.</text><text class="cls-1" transform="translate(286.26 439.25) rotate(165.73)">.</text><text class="cls-1" transform="translate(261.49 445.52) rotate(165.73)">.</text><text class="cls-1" transform="translate(236.73 451.79) rotate(164.94)">.</text><text class="cls-1" transform="matrix(-0.96, 0.29, -0.29, -0.96, 211.03, 458.69)">.</text><text class="cls-1" transform="translate(184.98 466.44) rotate(161.17)">.</text><text class="cls-1" transform="matrix(-0.93, 0.37, -0.37, -0.93, 158.73, 475.42)">.</text><text class="cls-1" transform="translate(132.31 486.13) rotate(153.92)">.</text><text class="cls-1" transform="translate(105.93 499.19) rotate(148.44)">.</text><text class="cls-1" transform="translate(79.9 515.47) rotate(141.26)">.</text><text class="cls-1" transform="translate(55.14 535.91) rotate(132.1)">.</text><text class="cls-1" transform="matrix(-0.52, 0.85, -0.85, -0.52, 33.31, 561.11)">.</text><text class="cls-1" transform="translate(15.85 591.34) rotate(108.29)">.</text><text class="cls-1" transform="translate(6.17 624.68) rotate(95.53)">.</text><text class="cls-1" transform="translate(3.67 655.82) rotate(87.64)">.</text><text class="cls-1" transform="translate(5.13 685.16) rotate(82.26)">.</text><text class="cls-1" transform="translate(9.09 713.24) rotate(78.31)">.</text><text class="cls-1" transform="matrix(0.25, 0.97, -0.97, 0.25, 14.79, 740.36)">.</text><text class="cls-1" transform="translate(21.78 766.72) rotate(72.84)">.</text><text class="cls-1" transform="matrix(0.33, 0.94, -0.94, 0.33, 29.76, 792.43)">.</text><text class="cls-1" transform="translate(38.51 817.59) rotate(69.38)">’</text></svg>