<svg id="Layer_1" data-name="Layer 1" xmlns="http://www.w3.org/2000/svg" viewBox="0 0 326 730"><defs><style>.cls-1{font-size:92px;font-family:Sabon-Bold, Sabon;font-weight:700;}</style></defs><text class="cls-1" transform="translate(133.93 -7.95) rotate(161.92)">‘</text><text class="cls-1" transform="matrix(-0.91, 0.41, -0.41, -0.91, 105.66, 1.44)">.</text><text class="cls-1" transform="translate(77.07 14.52) rotate(147.77)">.</text><text class="cls-1" transform="translate(48.3 33.55) rotate(135.4)">.</text><text class="cls-1" transform="matrix(-0.42, 0.91, -0.91, -0.42, 21.02, 63.71)">.</text><text class="cls-1" transform="translate(6.66 110.39) rotate(82.22)">.</text><text class="cls-1" transform="matrix(0.6, 0.8, -0.8, 0.6, 18.7, 155.53)">.</text><text class="cls-1" transform="matrix(0.86, 0.52, -0.52, 0.86, 46.06, 186.33)">.</text><text class="cls-1" transform="translate(75.48 202.1) rotate(20)">.</text><text class="cls-1" transform="translate(99.42 210.81) rotate(19.56)">.</text><text class="cls-1" transform="translate(123.5 219.35) rotate(19.38)">.</text><text class="cls-1" transform="matrix(0.94, 0.33, -0.33, 0.94, 147.58, 227.81)">.</text><text class="cls-1" transform="translate(171.59 236.29) rotate(19.92)">.</text><text class="cls-1" transform="matrix(0.93, 0.36, -0.36, 0.93, 195.42, 244.9)">.</text><text class="cls-1" transform="translate(218.93 253.79) rotate(22.36)">.</text><text class="cls-1" transform="translate(241.96 263.19) rotate(25.04)">.</text><text class="cls-1" transform="translate(263.97 273.23) rotate(30.04)">.</text><text class="cls-1" transform="translate(284.12 284.09) rotate(40.24)">.</text><text class="cls-1" transform="matrix(0.45, 0.89, -0.89, 0.45, 300.84, 295.32)">.</text><text class="cls-1" transform="matrix(-0.12, 0.99, -0.99, -0.12, 311.25, 309.66)">.</text><text class="cls-1" transform="translate(310.1 328.28) rotate(124.04)">.</text><text class="cls-1" transform="matrix(-0.83, 0.56, -0.56, -0.83, 299.6, 345.3)">.</text><text class="cls-1" transform="matrix(-0.94, 0.33, -0.33, -0.94, 281.79, 357.46)">.</text><text class="cls-1" transform="matrix(-0.97, 0.23, -0.23, -0.97, 259.16, 365.13)">.</text><text class="cls-1" transform="matrix(-0.98, 0.22, -0.22, -0.98, 234.47, 370.7)">.</text><text class="cls-1" transform="translate(207.11 376.72) rotate(164.02)">.</text><text class="cls-1" transform="matrix(-0.92, 0.39, -0.39, -0.92, 177.69, 385.34)">.</text><text class="cls-1" transform="translate(147.69 398.76) rotate(146.66)">.</text><text class="cls-1" transform="translate(119.99 417.95) rotate(135.33)">.</text><text class="cls-1" transform="translate(97.2 441.48) rotate(125.29)">.</text><text class="cls-1" transform="translate(79.55 467.22) rotate(117.38)">.</text><text class="cls-1" transform="translate(65.86 494.19) rotate(110.81)">.</text><text class="cls-1" transform="translate(55.59 521.97) rotate(105.09)">.</text><text class="cls-1" transform="translate(48.27 549.68) rotate(100.7)">.</text><text class="cls-1" transform="translate(43.15 577.36) rotate(97.03)">.</text><text class="cls-1" transform="matrix(-0.07, 1, -1, -0.07, 39.81, 605.07)">.</text><text class="cls-1" transform="translate(38.06 632.82) rotate(90.55)">.</text><text class="cls-1" transform="translate(37.84 660.74) rotate(87.2)">.</text><text class="cls-1" transform="matrix(0.12, 0.99, -0.99, 0.12, 39.29, 689.1)">.</text><text class="cls-1" transform="translate(42.87 718.48) rotate(77.54)">’</text></svg>