<svg xmlns="http://www.w3.org/2000/svg" viewBox="0 0 791.04 791.04"><defs><style>.cls-1{font-size:42.5px;font-family:Sabon-BoldItalic, Sabon;font-weight:700;font-style:italic;}</style></defs><g id="Layer_2" data-name="Layer 2"><g id="Layer_1-2" data-name="Layer 1"><text class="cls-1" transform="matrix(0.97, -0.25, 0.25, 0.97, 293.11, 51.15)">o</text><text class="cls-1" transform="translate(314.72 45.44) rotate(-10.99)">n</text><text class="cls-1" transform="translate(338.27 40.94) rotate(-7.59)">e</text><text class="cls-1" transform="matrix(1, -0.09, 0.09, 1, 356.66, 38.55)"> </text><text class="cls-1" transform="matrix(1, -0.03, 0.03, 1, 367.94, 37.13)">m</text><text class="cls-1" transform="matrix(1, 0.04, -0.04, 1, 402.85, 36.54)">i</text><text class="cls-1" transform="matrix(1, 0.09, -0.09, 1, 415.89, 36.94)">g</text><text class="cls-1" transform="matrix(0.99, 0.15, -0.15, 0.99, 436.62, 38.65)">h</text><text class="cls-1" transform="translate(459.63 42.16) rotate(11.35)">t</text><text class="cls-1" transform="translate(473.22 44.9) rotate(13.39)"> </text><text class="cls-1" transform="translate(484.48 47.57) rotate(15.38)">i</text><text class="cls-1" transform="translate(497.06 50.87) rotate(18.35)">n</text><text class="cls-1" transform="matrix(0.93, 0.36, -0.36, 0.93, 519.8, 58.54)">t</text><text class="cls-1" transform="translate(532.71 63.54) rotate(23.99)">e</text><text class="cls-1" transform="translate(549.6 71.07) rotate(26.77)">r</text><text class="cls-1" transform="translate(564.06 78.36) rotate(29.36)">r</text><text class="cls-1" transform="matrix(0.84, 0.54, -0.54, 0.84, 578.19, 86.17)">u</text><text class="cls-1" transform="matrix(0.81, 0.59, -0.59, 0.81, 598.35, 99.04)">p</text><text class="cls-1" transform="translate(617.01 112.89) rotate(39.25)">t</text><text class="cls-1" transform="translate(627.77 121.7) rotate(41.27)"> </text><text class="cls-1" transform="matrix(0.72, 0.69, -0.69, 0.72, 636.47, 129.15)">o</text><text class="cls-1" transform="matrix(0.67, 0.74, -0.74, 0.67, 652.61, 144.66)">n</text><text class="cls-1" transform="matrix(0.63, 0.78, -0.78, 0.63, 668.71, 162.42)">e</text><text class="cls-1" transform="matrix(0.6, 0.8, -0.8, 0.6, 680.34, 176.88)">’</text><text class="cls-1" transform="matrix(0.57, 0.82, -0.82, 0.57, 685.44, 183.6)">s</text><text class="cls-1" transform="translate(694.71 196.95) rotate(57.32)"> </text><text class="cls-1" transform="matrix(0.49, 0.87, -0.87, 0.49, 701.13, 206.34)">w</text><text class="cls-1" transform="matrix(0.43, 0.9, -0.9, 0.43, 716.77, 234.9)">r</text><text class="cls-1" transform="translate(723.68 249.59) rotate(67.07)">i</text><text class="cls-1" transform="translate(728.8 261.66) rotate(69.24)">t</text><text class="cls-1" transform="translate(733.72 274.63) rotate(71.4)">i</text><text class="cls-1" transform="translate(738.02 286.93) rotate(74.38)">n</text><text class="cls-1" transform="matrix(0.21, 0.98, -0.98, 0.21, 744.42, 309.98)">g</text><text class="cls-1" transform="translate(748.69 330.47) rotate(80.58)"> </text><text class="cls-1" transform="translate(750.88 341.63) rotate(84.08)">w</text><text class="cls-1" transform="matrix(0.04, 1, -1, 0.04, 753.95, 374.1)">i</text><text class="cls-1" transform="translate(754.4 387.25) rotate(89.07)">t</text><text class="cls-1" transform="translate(754.67 400.98) rotate(92.71)">h</text><text class="cls-1" transform="translate(753.43 424.23) rotate(95.46)"> </text><text class="cls-1" transform="translate(752.36 435.7) rotate(97.48)">t</text><text class="cls-1" transform="matrix(-0.18, 0.98, -0.98, -0.18, 750.7, 449.38)">h</text><text class="cls-1" transform="translate(746.44 472.21) rotate(103.79)">e</text><text class="cls-1" transform="matrix(-0.31, 0.95, -0.95, -0.31, 742.39, 490.08)">m</text><text class="cls-1" transform="translate(731.21 523.17) rotate(111.78)"> </text><text class="cls-1" transform="matrix(-0.4, 0.91, -0.91, -0.4, 726.94, 533.93)">t</text><text class="cls-1" transform="translate(721.51 546.56) rotate(116.79)">h</text><text class="cls-1" transform="matrix(-0.51, 0.86, -0.86, -0.51, 711.06, 567.25)">a</text><text class="cls-1" transform="translate(699.6 586.57) rotate(123.32)">t</text><text class="cls-1" transform="matrix(-0.58, 0.82, -0.82, -0.58, 691.95, 598.17)"> </text><text class="cls-1" transform="translate(685.28 607.61) rotate(127.31)">i</text><text class="cls-1" transform="translate(677.38 618.04) rotate(129.64)">s</text><text class="cls-1" transform="translate(666.98 630.53) rotate(131.85)"> </text><text class="cls-1" transform="matrix(-0.7, 0.71, -0.71, -0.7, 659.46, 639.17)">n</text><text class="cls-1" transform="translate(642.65 656.17) rotate(138.33)">o</text><text class="cls-1" transform="matrix(-0.78, 0.63, -0.63, -0.78, 625.81, 671.03)">t</text><text class="cls-1" transform="translate(614.96 679.73) rotate(143.23)"> </text><text class="cls-1" transform="translate(605.75 686.68) rotate(145.44)">r</text><text class="cls-1" transform="translate(592.46 695.88) rotate(148.2)">e</text><text class="cls-1" transform="translate(576.81 705.66) rotate(151.46)">a</text><text class="cls-1" transform="matrix(-0.9, 0.43, -0.43, -0.9, 557, 716.3)">l</text><text class="cls-1" transform="translate(545.92 721.66) rotate(156.22)">l</text><text class="cls-1" transform="translate(534.76 726.7) rotate(158.94)">y</text><text class="cls-1" transform="translate(514.47 734.4) rotate(161.61)"> </text><text class="cls-1" transform="translate(503.51 738.06) rotate(163.59)">i</text><text class="cls-1" transform="translate(491.06 741.88) rotate(166.57)">n</text><text class="cls-1" transform="translate(467.68 747.34) rotate(169.6)">t</text><text class="cls-1" transform="translate(454.09 749.89) rotate(172.19)">e</text><text class="cls-1" transform="translate(435.75 752.39) rotate(174.95)">r</text><text class="cls-1" transform="translate(419.63 753.82) rotate(177.51)">r</text><text class="cls-1" transform="translate(403.54 754.7) rotate(-179.07)">u</text><text class="cls-1" transform="translate(379.57 754.37) rotate(-175.63)">p</text><text class="cls-1" transform="translate(356.41 752.49) rotate(-172.69)">t</text><text class="cls-1" transform="matrix(-0.99, -0.16, 0.16, -0.99, 342.64, 750.71)"> </text><text class="cls-1" transform="translate(331.28 748.98) rotate(-167.94)">o</text><text class="cls-1" transform="translate(309.42 744.35) rotate(-164.22)">n</text><text class="cls-1" transform="matrix(-0.94, -0.33, 0.33, -0.94, 286.39, 737.77)">e</text><text class="cls-1" transform="translate(268.9 731.61) rotate(-158.4)">’</text><text class="cls-1" transform="translate(260.98 728.57) rotate(-156.66)">s</text><text class="cls-1" transform="translate(246.09 722.1) rotate(-154.43)"> </text><text class="cls-1" transform="translate(235.69 717.5) rotate(-150.91)">w</text><text class="cls-1" transform="matrix(-0.84, -0.54, 0.54, -0.84, 207.36, 701.44)">r</text><text class="cls-1" transform="translate(193.76 692.59) rotate(-144.7)">i</text><text class="cls-1" transform="matrix(-0.79, -0.61, 0.61, -0.79, 183.03, 685)">t</text><text class="cls-1" transform="translate(172.03 676.58) rotate(-140.41)">i</text><text class="cls-1" transform="translate(161.9 668.4) rotate(-137.47)">n</text><text class="cls-1" transform="translate(144.27 652.18) rotate(-133.92)">g</text><text class="cls-1" transform="matrix(-0.66, -0.75, 0.75, -0.66, 129.84, 637.05)"> </text><text class="cls-1" transform="matrix(-0.61, -0.79, 0.79, -0.61, 122.07, 628.73)">w</text><text class="cls-1" transform="matrix(-0.56, -0.83, 0.83, -0.56, 102.3, 602.81)">i</text><text class="cls-1" transform="translate(94.91 591.99) rotate(-122.09)">t</text><text class="cls-1" transform="matrix(-0.49, -0.87, 0.87, -0.49, 87.48, 580.38)">h</text><text class="cls-1" transform="translate(76.26 559.97) rotate(-116.35)"> </text><text class="cls-1" transform="translate(71.11 549.65) rotate(-114.32)">t</text><text class="cls-1" transform="translate(65.32 537.15) rotate(-111.34)">h</text><text class="cls-1" transform="translate(56.93 515.52) rotate(-108)">e</text><text class="cls-1" transform="translate(50.94 498.16) rotate(-103.72)">m</text><text class="cls-1" transform="translate(43.02 464.16) rotate(-100.01)"> </text><text class="cls-1" transform="translate(40.88 452.9) rotate(-97.23)">b</text><text class="cls-1" transform="translate(37.94 429.93) rotate(-93.5)">u</text><text class="cls-1" transform="matrix(-0.02, -1, 1, -0.02, 36.65, 405.94)">t</text><text class="cls-1" transform="translate(36.49 392.05) rotate(-88.53)"> </text><text class="cls-1" transform="translate(36.64 380.58) rotate(-85.86)">o</text><text class="cls-1" transform="translate(38.22 358.27) rotate(-82.17)">n</text><text class="cls-1" transform="matrix(0.19, -0.98, 0.98, 0.19, 41.55, 334.55)">e</text><text class="cls-1" transform="matrix(0.24, -0.97, 0.97, 0.24, 45.22, 316.36)"> </text><text class="cls-1" transform="translate(47.86 305.16) rotate(-73.95)">c</text><text class="cls-1" transform="translate(52.89 287.41) rotate(-70.67)">o</text><text class="cls-1" transform="translate(60.25 266.32) rotate(-66.95)">u</text><text class="cls-1" transform="matrix(0.44, -0.9, 0.9, 0.44, 69.79, 244.25)">l</text><text class="cls-1" transform="matrix(0.48, -0.88, 0.88, 0.48, 74.99, 233.21)">d</text><text class="cls-1" transform="matrix(0.53, -0.85, 0.85, 0.53, 86.71, 212.23)"> </text><text class="cls-1" transform="translate(92.69 202.39) rotate(-55.91)">c</text><text class="cls-1" transform="matrix(0.61, -0.8, 0.8, 0.61, 102.97, 187.08)">o</text><text class="cls-1" transform="matrix(0.67, -0.74, 0.74, 0.67, 116.25, 169.22)">m</text><text class="cls-1" transform="matrix(0.72, -0.69, 0.69, 0.72, 139.74, 143.43)">e</text><text class="cls-1" transform="matrix(0.75, -0.66, 0.66, 0.75, 153.16, 130.61)"> </text><text class="cls-1" transform="translate(161.78 122.94) rotate(-39.52)">t</text><text class="cls-1" transform="translate(172.35 114.07) rotate(-36.64)">o</text><text class="cls-1" transform="translate(190.46 100.76) rotate(-33.93)"> </text><text class="cls-1" transform="translate(200 94.27) rotate(-31.72)">s</text><text class="cls-1" transform="matrix(0.87, -0.49, 0.49, 0.87, 213.8, 85.76)">t</text><text class="cls-1" transform="translate(225.78 78.9) rotate(-26.42)">o</text><text class="cls-1" transform="matrix(0.92, -0.39, 0.39, 0.92, 245.77, 68.94)">p</text></g></g></svg>